<?xml version="1.0" standalone="no"?>
<!DOCTYPE svg PUBLIC "-//W3C//DTD SVG 20010904//EN"
 "http://www.w3.org/TR/2001/REC-SVG-20010904/DTD/svg10.dtd">
<svg version="1.0" xmlns="http://www.w3.org/2000/svg"
 width="700.000000pt" height="700.000000pt" viewBox="0 0 700.000000 700.000000"
 preserveAspectRatio="xMidYMid meet">
<metadata>
Created by potrace 1.14, written by Peter Selinger 2001-2017
</metadata>
<g transform="translate(0.000000,700.000000) scale(0.100000,-0.100000)"
fill="#000000" stroke="none">
<path d="M3440 6060 c-80 -22 -194 -135 -279 -276 -30 -49 -135 -222 -234
-384 -99 -162 -243 -398 -320 -525 -200 -327 -392 -642 -581 -948 -36 -60 -66
-113 -66 -118 0 -5 -4 -9 -10 -9 -5 0 -10 -4 -10 -9 0 -7 -57 -103 -142 -239
-9 -15 -23 -38 -31 -52 -7 -14 -94 -155 -192 -315 -98 -159 -215 -351 -260
-425 -45 -74 -137 -225 -204 -335 -67 -110 -161 -263 -208 -340 -47 -77 -159
-261 -250 -409 -91 -148 -169 -283 -174 -300 -15 -52 -12 -172 7 -229 31 -95
109 -169 215 -200 36 -11 546 -13 2819 -12 l2775 1 52 21 c58 23 108 61 136
102 50 74 65 252 29 335 -11 24 -617 1041 -1347 2258 -1263 2106 -1330 2216
-1397 2281 -83 81 -168 126 -249 131 -30 2 -65 0 -79 -4z m84 -733 c11 -17 25
-41 31 -52 7 -11 20 -34 31 -51 10 -17 36 -60 57 -95 48 -82 54 -90 105 -172
23 -37 42 -70 42 -72 0 -3 23 -41 50 -85 28 -44 50 -82 50 -86 0 -3 13 -24 28
-47 15 -23 33 -51 39 -62 7 -11 40 -67 75 -125 35 -58 76 -127 91 -155 16 -27
35 -57 43 -66 8 -8 14 -18 14 -22 0 -3 43 -76 95 -162 52 -86 95 -159 95 -162
0 -2 13 -23 28 -46 15 -23 33 -51 39 -62 6 -11 94 -157 195 -324 100 -168 193
-322 205 -343 11 -22 32 -56 45 -76 13 -20 29 -46 35 -57 7 -11 37 -62 67
-112 l55 -93 -187 0 -187 0 -349 350 -350 349 -228 -342 c-125 -188 -232 -342
-238 -342 -6 0 -113 154 -238 342 l-228 342 -350 -349 -349 -350 -207 0 c-115
0 -208 3 -208 8 1 4 25 45 55 92 29 47 85 137 124 200 39 63 115 187 170 275
83 133 214 345 256 414 6 9 59 95 118 191 60 96 114 184 120 195 7 11 24 39
40 62 15 23 27 44 27 47 0 3 13 25 29 48 16 24 125 198 242 388 117 190 235
381 262 425 53 85 81 130 112 182 11 18 22 33 25 33 3 0 14 -15 24 -33z"/>
</g>
</svg>
